<svg width="100" height="100" xmlns="http://www.w3.org/2000/svg">

 <g>
  <title>background</title>
  <rect fill="none" id="canvas_background" height="402" width="582" y="-1" x="-1"/>
 </g>
 <g>
  <title>Layer 1</title>
  <path id="svg_1" fill="white" d="m49.4141,22.1094c-2.7929,5.0781 -7.832,9.9219 -13.1445,12.6758l-2.3438,1.2109l0.9375,0.3711c6.0157,2.3633 14.5118,3.2226 21.5235,2.207c3.2422,-0.4883 9.6484,-2.207 9.6289,-2.5976c0,-0.0782 -0.6055,-0.4102 -1.3281,-0.7227c-5.4297,-2.4219 -11.1133,-7.7148 -14.1016,-13.1445c-0.2539,-0.4492 -0.5273,-0.8203 -0.5859,-0.8203c-0.0586,0 -0.3321,0.3711 -0.586,0.8203z"/>
  <path id="svg_2" fill="white" d="m38.7695,43.1836c-3.6523,3.6914 -8.5937,7.4609 -12.2461,9.3555c-0.7422,0.3711 -1.3281,0.7421 -1.3281,0.8203c0,0.1758 2.8906,1.8945 4.8828,2.8906c3.8867,1.9531 8.8867,3.5156 13.4766,4.2383c3.125,0.4687 9.7656,0.4687 12.8906,0c4.6485,-0.7422 9.5508,-2.2656 13.4961,-4.2383c2.0313,-1.0156 4.8633,-2.7148 4.8633,-2.9102c0,-0.0781 -0.332,-0.2929 -0.7227,-0.4882c-2.0312,-0.9571 -6.3672,-3.8672 -8.75,-5.8399c-0.6445,-0.5469 -2.2656,-2.0703 -3.6132,-3.3789c-2.4024,-2.3633 -2.461,-2.4023 -3.125,-2.2656l-0.6836,0.1562l-0.0586,2.0703l-0.0586,2.0508l0.6054,0.2539c1.3282,0.5469 2.5391,2.5196 2.5391,4.1407c0,1.875 -1.582,3.9843 -3.3398,4.4531c-1.0157,0.2734 -2.6368,0.1562 -3.4375,-0.2539c-1.4454,-0.7617 -2.5977,-2.6172 -2.5977,-4.1992c0,-1.6211 1.2109,-3.5938 2.5391,-4.1407l0.5859,-0.2343l0,-1.7969l0,-1.7774l-4.5313,0c-3.3789,-0.0195 -5.1171,-0.0976 -6.7773,-0.3711c-1.2109,-0.1757 -2.3047,-0.3906 -2.4414,-0.4296c-0.1172,-0.0391 -1.0937,0.8007 -2.168,1.8945z"/>
  <path id="svg_3" fill="white" d="m29.8828,61.6601c-3.0273,2.6368 -7.3046,5.6641 -11.1132,7.8711c-1.4063,0.8008 -1.7383,1.0743 -1.5625,1.2891c0.1171,0.1367 1.0156,0.8594 1.9921,1.6016c18.3204,13.8085 43.2032,13.8281 61.543,0.0586c0.9961,-0.7422 1.9141,-1.4844 2.0313,-1.6407c0.1758,-0.2148 -0.2735,-0.5664 -2.461,-1.8554c-3.3007,-1.9727 -6.9726,-4.5899 -9.707,-6.8946l-2.0703,-1.7578l-1.5039,0.586c-3.8086,1.4648 -8.6328,2.5586 -13.0274,2.9687c-2.4218,0.2149 -7.4609,0.1367 -9.414,-0.1367l-0.8399,-0.1367l0,1.9531l0,1.9727l0.586,0.2343c1.3281,0.5469 2.539,2.5196 2.539,4.1406c0,1.875 -1.582,3.9844 -3.3398,4.4532c-1.0156,0.2734 -2.6367,0.1562 -3.4375,-0.2539c-1.4453,-0.7618 -2.5977,-2.6172 -2.5977,-4.1993c0,-1.621 1.211,-3.5937 2.5391,-4.1406l0.5859,-0.2343l0,-2.1875l0,-2.1875l-2.1875,-0.5469c-1.2109,-0.3125 -3.2812,-0.9375 -4.5898,-1.4063c-1.3086,-0.4687 -2.4024,-0.8593 -2.4414,-0.8398c-0.0391,0 -0.7227,0.5859 -1.5235,1.289z"/>
  <path id="svg_4" fill="white" d="m44.8242,86.4258c-0.0781,0.5469 -0.8789,8.418 -0.8789,8.75c0,0.0781 2.7344,0.1367 6.0547,0.1367c3.3398,0 6.0547,-0.0586 6.0547,-0.1367c0,-0.332 -0.8008,-8.2031 -0.8789,-8.75l-0.0977,-0.586l-5.0781,0l-5.0781,0l-0.0977,0.586z"/>
  <ellipse ry="6.463596" rx="6.166418" id="svg_5" cy="70.066189" cx="42.05052" stroke-width="1.5" fill="white"/>
  <ellipse id="svg_6" cy="74.895313" cx="45.245171" stroke-width="1.5" stroke="#000" fill="#fff"/>
  <ellipse ry="6.983656" rx="5.572065" id="svg_8" cy="48.743752" cx="56.315007" stroke-width="1.5" fill="white"/>
 </g>
</svg>